<svg width="36" height="36" viewBox="0 0 36 36" fill="none"
  xmlns="http://www.w3.org/2000/svg">
  <path d="M10.4346 11.3881C6.31354 8.99644 6.31354 5.11877 10.4346 2.7271C14.5556 0.335432 21.2372 0.335432 25.3583 2.7271C29.4793 5.11877 29.4793 8.99644 25.3583 11.3881C21.2372 13.7798 14.5556 13.7798 10.4346 11.3881Z" fill="black"/>
  <path d="M21.0758 29.6885C21.0758 24.9236 24.4167 19.0883 28.5379 16.6965C32.6591 14.3048 36 16.2623 36 21.0272C36 25.7921 32.6591 31.6274 28.5379 34.0192C24.4167 36.411 21.0758 34.4534 21.0758 29.6885Z" fill="black"/>
  <path d="M7.46211 16.6962C3.3409 14.3045 0 16.262 0 21.0269C0 25.7918 3.3409 31.6271 7.46211 34.0189C11.5833 36.4106 14.9242 34.4531 14.9242 29.6882C14.9242 24.9233 11.5833 19.088 7.46211 16.6962Z" fill="black"/>
</svg>
