<svg width="512" height="512" viewBox="0 0 512 512" fill="none"
  xmlns="http://www.w3.org/2000/svg">
  <path d="M152.419 157.771C124.58 141.614 112.445 121.547 112.445 103.101C112.445 84.6542 124.58 64.5867 152.419 48.4303C180.218 32.2967 217.156 24 254.527 24C291.898 24 328.835 32.2967 356.635 48.4303C384.474 64.5867 396.609 84.6542 396.609 103.101C396.609 121.547 384.474 141.614 356.635 157.771C328.835 173.904 291.898 182.201 254.527 182.201C217.156 182.201 180.218 173.904 152.419 157.771ZM307.745 424.963C307.745 392.807 319.072 356.483 337.768 323.9C356.464 291.316 382.09 263.239 409.888 247.107C437.719 230.955 461.039 230.501 476.891 239.729C492.768 248.97 504 269.572 504 301.779C504 333.935 492.673 370.259 473.977 402.842C455.281 435.426 429.654 463.503 401.857 479.635C374.025 495.787 350.706 496.241 334.853 487.013C318.977 477.772 307.745 457.17 307.745 424.963ZM8 301.775C8 269.567 19.2323 248.965 35.1086 239.724C50.9615 230.496 74.2807 230.95 102.112 247.102C129.91 263.235 155.536 291.311 174.233 323.895C192.928 356.478 204.255 392.802 204.255 424.958C204.255 457.165 193.023 477.767 177.147 487.009C161.294 496.236 137.975 495.783 110.143 479.63C82.3458 463.498 56.7195 435.421 38.023 402.837C19.3271 370.254 8 333.93 8 301.775Z" fill="#7A5AF8" stroke="url(#paint0_linear_506_2451)" stroke-width="16"/>
  <defs>
    <linearGradient id="paint0_linear_506_2451" x1="512" y1="16" x2="-1.50899e-05" y2="501" gradientUnits="userSpaceOnUse">
      <stop stop-color="white"/>
      <stop offset="1" stop-color="white" stop-opacity="0"/>
    </linearGradient>
  </defs>
</svg>