<svg width="1200" height="630" viewBox="0 0 1200 630" fill="none" xmlns="http://www.w3.org/2000/svg">
<rect width="1200" height="630" fill="#18181B"/>
<path d="M263.681 340V287.636H281.374C285.482 287.636 288.84 288.378 291.448 289.861C294.073 291.327 296.016 293.312 297.277 295.818C298.539 298.324 299.169 301.119 299.169 304.205C299.169 307.29 298.539 310.094 297.277 312.616C296.033 315.139 294.107 317.151 291.499 318.651C288.891 320.134 285.55 320.875 281.476 320.875H268.794V315.25H281.272C284.084 315.25 286.343 314.764 288.047 313.793C289.752 312.821 290.988 311.509 291.755 309.855C292.539 308.185 292.931 306.301 292.931 304.205C292.931 302.108 292.539 300.233 291.755 298.58C290.988 296.926 289.743 295.631 288.022 294.693C286.3 293.739 284.016 293.261 281.169 293.261H270.022V340H263.681ZM314.6 287.636V340H308.566V287.636H314.6ZM337.208 340.92C334.72 340.92 332.461 340.452 330.433 339.514C328.404 338.56 326.794 337.188 325.6 335.398C324.407 333.591 323.811 331.409 323.811 328.852C323.811 326.602 324.254 324.778 325.14 323.381C326.027 321.966 327.211 320.858 328.694 320.057C330.177 319.256 331.814 318.659 333.603 318.267C335.41 317.858 337.225 317.534 339.049 317.295C341.436 316.989 343.37 316.759 344.853 316.605C346.353 316.435 347.444 316.153 348.126 315.761C348.825 315.369 349.174 314.687 349.174 313.716V313.511C349.174 310.989 348.484 309.028 347.103 307.631C345.74 306.233 343.669 305.534 340.89 305.534C338.01 305.534 335.751 306.165 334.115 307.426C332.478 308.687 331.328 310.034 330.663 311.466L324.936 309.42C325.958 307.034 327.322 305.176 329.027 303.847C330.748 302.5 332.623 301.562 334.652 301.034C336.697 300.489 338.708 300.216 340.686 300.216C341.947 300.216 343.396 300.369 345.032 300.676C346.686 300.966 348.279 301.571 349.814 302.491C351.365 303.412 352.652 304.801 353.674 306.659C354.697 308.517 355.208 311.006 355.208 314.125V340H349.174V334.682H348.868C348.458 335.534 347.777 336.446 346.822 337.418C345.868 338.389 344.598 339.216 343.012 339.898C341.427 340.58 339.493 340.92 337.208 340.92ZM338.129 335.5C340.515 335.5 342.527 335.031 344.163 334.094C345.816 333.156 347.061 331.946 347.896 330.463C348.748 328.98 349.174 327.42 349.174 325.784V320.261C348.919 320.568 348.356 320.849 347.487 321.105C346.635 321.344 345.646 321.557 344.521 321.744C343.413 321.915 342.331 322.068 341.274 322.205C340.234 322.324 339.39 322.426 338.743 322.511C337.174 322.716 335.708 323.048 334.345 323.509C332.998 323.952 331.907 324.625 331.072 325.528C330.254 326.415 329.845 327.625 329.845 329.159C329.845 331.256 330.62 332.841 332.172 333.915C333.74 334.972 335.725 335.5 338.129 335.5ZM382.176 340.818C378.495 340.818 375.324 339.949 372.665 338.21C370.006 336.472 367.961 334.077 366.529 331.026C365.097 327.974 364.381 324.489 364.381 320.568C364.381 316.58 365.114 313.06 366.58 310.009C368.063 306.94 370.125 304.545 372.767 302.824C375.426 301.085 378.529 300.216 382.074 300.216C384.836 300.216 387.324 300.727 389.54 301.75C391.756 302.773 393.571 304.205 394.986 306.045C396.401 307.886 397.279 310.034 397.62 312.489H391.586C391.125 310.699 390.103 309.114 388.517 307.733C386.949 306.335 384.836 305.636 382.176 305.636C379.824 305.636 377.762 306.25 375.989 307.477C374.233 308.687 372.861 310.401 371.873 312.616C370.901 314.815 370.415 317.398 370.415 320.364C370.415 323.398 370.892 326.04 371.847 328.29C372.819 330.54 374.182 332.287 375.938 333.531C377.711 334.776 379.79 335.398 382.176 335.398C383.745 335.398 385.168 335.125 386.446 334.58C387.725 334.034 388.807 333.25 389.694 332.227C390.58 331.205 391.211 329.977 391.586 328.545H397.62C397.279 330.864 396.435 332.952 395.088 334.81C393.759 336.651 391.995 338.116 389.796 339.207C387.614 340.281 385.074 340.818 382.176 340.818ZM422.907 340.818C419.123 340.818 415.858 339.983 413.114 338.312C410.387 336.625 408.282 334.273 406.799 331.256C405.333 328.222 404.6 324.693 404.6 320.67C404.6 316.648 405.333 313.102 406.799 310.034C408.282 306.949 410.344 304.545 412.986 302.824C415.645 301.085 418.748 300.216 422.293 300.216C424.338 300.216 426.358 300.557 428.353 301.239C430.347 301.92 432.162 303.028 433.799 304.562C435.435 306.08 436.739 308.091 437.711 310.597C438.682 313.102 439.168 316.187 439.168 319.852V322.409H408.895V317.193H433.032C433.032 314.977 432.588 313 431.702 311.261C430.833 309.523 429.588 308.151 427.969 307.145C426.367 306.139 424.475 305.636 422.293 305.636C419.89 305.636 417.81 306.233 416.054 307.426C414.316 308.602 412.978 310.136 412.04 312.028C411.103 313.92 410.634 315.949 410.634 318.114V321.591C410.634 324.557 411.145 327.071 412.168 329.134C413.208 331.179 414.648 332.739 416.489 333.812C418.33 334.869 420.469 335.398 422.907 335.398C424.492 335.398 425.924 335.176 427.202 334.733C428.498 334.273 429.614 333.591 430.551 332.688C431.489 331.767 432.213 330.625 432.725 329.261L438.554 330.898C437.941 332.875 436.909 334.614 435.461 336.114C434.012 337.597 432.222 338.756 430.091 339.591C427.961 340.409 425.566 340.818 422.907 340.818ZM454.381 316.375V340H448.347V287.636H454.381V306.864H454.892C455.813 304.835 457.194 303.224 459.034 302.031C460.892 300.821 463.364 300.216 466.449 300.216C469.125 300.216 471.469 300.753 473.48 301.827C475.492 302.884 477.051 304.511 478.159 306.71C479.284 308.892 479.847 311.67 479.847 315.045V340H473.813V315.455C473.813 312.335 473.003 309.923 471.384 308.219C469.782 306.497 467.557 305.636 464.711 305.636C462.733 305.636 460.961 306.054 459.392 306.889C457.841 307.724 456.614 308.943 455.711 310.545C454.824 312.148 454.381 314.091 454.381 316.375ZM506.841 340.818C503.295 340.818 500.184 339.974 497.508 338.287C494.849 336.599 492.77 334.239 491.27 331.205C489.787 328.17 489.045 324.625 489.045 320.568C489.045 316.477 489.787 312.906 491.27 309.855C492.77 306.804 494.849 304.435 497.508 302.747C500.184 301.06 503.295 300.216 506.841 300.216C510.386 300.216 513.488 301.06 516.147 302.747C518.824 304.435 520.903 306.804 522.386 309.855C523.886 312.906 524.636 316.477 524.636 320.568C524.636 324.625 523.886 328.17 522.386 331.205C520.903 334.239 518.824 336.599 516.147 338.287C513.488 339.974 510.386 340.818 506.841 340.818ZM506.841 335.398C509.534 335.398 511.75 334.707 513.488 333.327C515.227 331.946 516.514 330.131 517.349 327.881C518.184 325.631 518.602 323.193 518.602 320.568C518.602 317.943 518.184 315.497 517.349 313.23C516.514 310.963 515.227 309.131 513.488 307.733C511.75 306.335 509.534 305.636 506.841 305.636C504.147 305.636 501.931 306.335 500.193 307.733C498.454 309.131 497.167 310.963 496.332 313.23C495.497 315.497 495.079 317.943 495.079 320.568C495.079 323.193 495.497 325.631 496.332 327.881C497.167 330.131 498.454 331.946 500.193 333.327C501.931 334.707 504.147 335.398 506.841 335.398ZM539.881 287.636V340H533.847V287.636H539.881ZM565.762 340.818C562.49 340.818 559.6 339.991 557.095 338.338C554.589 336.668 552.629 334.315 551.214 331.281C549.799 328.23 549.092 324.625 549.092 320.466C549.092 316.341 549.799 312.761 551.214 309.727C552.629 306.693 554.598 304.349 557.12 302.696C559.643 301.043 562.558 300.216 565.865 300.216C568.422 300.216 570.441 300.642 571.924 301.494C573.424 302.33 574.566 303.284 575.35 304.358C576.152 305.415 576.774 306.284 577.217 306.966H577.728V287.636H583.762V340H577.933V333.966H577.217C576.774 334.682 576.143 335.585 575.325 336.676C574.507 337.75 573.339 338.713 571.822 339.565C570.305 340.401 568.285 340.818 565.762 340.818ZM566.581 335.398C569.001 335.398 571.047 334.767 572.717 333.506C574.387 332.227 575.657 330.463 576.527 328.213C577.396 325.946 577.831 323.33 577.831 320.364C577.831 317.432 577.404 314.866 576.552 312.668C575.7 310.452 574.439 308.73 572.768 307.503C571.098 306.259 569.035 305.636 566.581 305.636C564.024 305.636 561.893 306.293 560.189 307.605C558.501 308.901 557.231 310.665 556.379 312.898C555.544 315.114 555.126 317.602 555.126 320.364C555.126 323.159 555.552 325.699 556.404 327.983C557.274 330.25 558.552 332.057 560.24 333.403C561.944 334.733 564.058 335.398 566.581 335.398ZM612.118 340.818C608.333 340.818 605.069 339.983 602.325 338.312C599.598 336.625 597.493 334.273 596.01 331.256C594.544 328.222 593.811 324.693 593.811 320.67C593.811 316.648 594.544 313.102 596.01 310.034C597.493 306.949 599.555 304.545 602.197 302.824C604.856 301.085 607.958 300.216 611.504 300.216C613.549 300.216 615.569 300.557 617.564 301.239C619.558 301.92 621.373 303.028 623.01 304.562C624.646 306.08 625.95 308.091 626.922 310.597C627.893 313.102 628.379 316.187 628.379 319.852V322.409H598.106V317.193H622.243C622.243 314.977 621.799 313 620.913 311.261C620.044 309.523 618.799 308.151 617.18 307.145C615.578 306.139 613.686 305.636 611.504 305.636C609.1 305.636 607.021 306.233 605.265 307.426C603.527 308.602 602.189 310.136 601.251 312.028C600.314 313.92 599.845 315.949 599.845 318.114V321.591C599.845 324.557 600.356 327.071 601.379 329.134C602.419 331.179 603.859 332.739 605.7 333.812C607.541 334.869 609.68 335.398 612.118 335.398C613.703 335.398 615.135 335.176 616.413 334.733C617.708 334.273 618.825 333.591 619.762 332.688C620.7 331.767 621.424 330.625 621.936 329.261L627.765 330.898C627.152 332.875 626.12 334.614 624.672 336.114C623.223 337.597 621.433 338.756 619.302 339.591C617.172 340.409 614.777 340.818 612.118 340.818ZM637.558 340V300.727H643.387V306.659H643.797C644.512 304.716 645.808 303.139 647.683 301.929C649.558 300.719 651.672 300.114 654.024 300.114C654.467 300.114 655.021 300.122 655.686 300.139C656.35 300.156 656.853 300.182 657.194 300.216V306.352C656.99 306.301 656.521 306.224 655.788 306.122C655.072 306.003 654.314 305.943 653.512 305.943C651.603 305.943 649.899 306.344 648.399 307.145C646.916 307.929 645.74 309.02 644.87 310.418C644.018 311.798 643.592 313.375 643.592 315.148V340H637.558ZM721.211 304C720.648 302.278 719.907 300.736 718.986 299.372C718.083 297.991 717 296.815 715.739 295.844C714.495 294.872 713.08 294.131 711.495 293.619C709.909 293.108 708.171 292.852 706.279 292.852C703.176 292.852 700.355 293.653 697.816 295.256C695.276 296.858 693.256 299.219 691.756 302.338C690.256 305.457 689.506 309.284 689.506 313.818C689.506 318.352 690.265 322.179 691.782 325.298C693.299 328.418 695.353 330.778 697.944 332.381C700.534 333.983 703.449 334.784 706.688 334.784C709.688 334.784 712.33 334.145 714.614 332.866C716.915 331.571 718.705 329.747 719.983 327.395C721.279 325.026 721.926 322.239 721.926 319.034L723.87 319.443H708.12V313.818H728.063V319.443C728.063 323.756 727.142 327.506 725.301 330.693C723.478 333.881 720.955 336.352 717.733 338.108C714.529 339.847 710.847 340.716 706.688 340.716C702.051 340.716 697.978 339.625 694.466 337.443C690.972 335.261 688.245 332.159 686.284 328.136C684.341 324.114 683.37 319.341 683.37 313.818C683.37 309.676 683.924 305.952 685.032 302.645C686.157 299.321 687.742 296.491 689.787 294.156C691.833 291.821 694.253 290.031 697.049 288.787C699.844 287.543 702.921 286.92 706.279 286.92C709.04 286.92 711.614 287.338 714 288.173C716.404 288.991 718.543 290.159 720.418 291.676C722.31 293.176 723.887 294.974 725.148 297.071C726.409 299.151 727.279 301.46 727.756 304H721.211ZM738.105 340V300.727H743.934V306.659H744.343C745.059 304.716 746.355 303.139 748.23 301.929C750.105 300.719 752.218 300.114 754.571 300.114C755.014 300.114 755.568 300.122 756.233 300.139C756.897 300.156 757.4 300.182 757.741 300.216V306.352C757.537 306.301 757.068 306.224 756.335 306.122C755.619 306.003 754.86 305.943 754.059 305.943C752.15 305.943 750.446 306.344 748.946 307.145C747.463 307.929 746.287 309.02 745.417 310.418C744.565 311.798 744.139 313.375 744.139 315.148V340H738.105ZM776.451 340.92C773.962 340.92 771.703 340.452 769.675 339.514C767.647 338.56 766.036 337.188 764.843 335.398C763.65 333.591 763.053 331.409 763.053 328.852C763.053 326.602 763.496 324.778 764.382 323.381C765.269 321.966 766.453 320.858 767.936 320.057C769.419 319.256 771.056 318.659 772.846 318.267C774.652 317.858 776.468 317.534 778.292 317.295C780.678 316.989 782.613 316.759 784.096 316.605C785.596 316.435 786.686 316.153 787.368 315.761C788.067 315.369 788.417 314.687 788.417 313.716V313.511C788.417 310.989 787.726 309.028 786.346 307.631C784.982 306.233 782.911 305.534 780.132 305.534C777.252 305.534 774.993 306.165 773.357 307.426C771.721 308.687 770.57 310.034 769.905 311.466L764.178 309.42C765.201 307.034 766.564 305.176 768.269 303.847C769.99 302.5 771.865 301.562 773.894 301.034C775.939 300.489 777.951 300.216 779.928 300.216C781.189 300.216 782.638 300.369 784.275 300.676C785.928 300.966 787.522 301.571 789.056 302.491C790.607 303.412 791.894 304.801 792.917 306.659C793.939 308.517 794.451 311.006 794.451 314.125V340H788.417V334.682H788.11C787.701 335.534 787.019 336.446 786.064 337.418C785.11 338.389 783.84 339.216 782.255 339.898C780.669 340.58 778.735 340.92 776.451 340.92ZM777.371 335.5C779.757 335.5 781.769 335.031 783.405 334.094C785.059 333.156 786.303 331.946 787.138 330.463C787.99 328.98 788.417 327.42 788.417 325.784V320.261C788.161 320.568 787.598 320.849 786.729 321.105C785.877 321.344 784.888 321.557 783.763 321.744C782.655 321.915 781.573 322.068 780.516 322.205C779.476 322.324 778.632 322.426 777.985 322.511C776.417 322.716 774.951 323.048 773.587 323.509C772.24 323.952 771.15 324.625 770.314 325.528C769.496 326.415 769.087 327.625 769.087 329.159C769.087 331.256 769.863 332.841 771.414 333.915C772.982 334.972 774.968 335.5 777.371 335.5ZM805.464 354.727V300.727H811.294V306.966H812.01C812.453 306.284 813.066 305.415 813.85 304.358C814.652 303.284 815.794 302.33 817.277 301.494C818.777 300.642 820.805 300.216 823.362 300.216C826.669 300.216 829.583 301.043 832.106 302.696C834.629 304.349 836.598 306.693 838.012 309.727C839.427 312.761 840.135 316.341 840.135 320.466C840.135 324.625 839.427 328.23 838.012 331.281C836.598 334.315 834.637 336.668 832.132 338.338C829.626 339.991 826.737 340.818 823.464 340.818C820.941 340.818 818.922 340.401 817.404 339.565C815.887 338.713 814.72 337.75 813.902 336.676C813.083 335.585 812.453 334.682 812.01 333.966H811.498V354.727H805.464ZM811.396 320.364C811.396 323.33 811.831 325.946 812.7 328.213C813.569 330.463 814.839 332.227 816.51 333.506C818.18 334.767 820.225 335.398 822.646 335.398C825.169 335.398 827.274 334.733 828.961 333.403C830.666 332.057 831.944 330.25 832.797 327.983C833.666 325.699 834.1 323.159 834.1 320.364C834.1 317.602 833.674 315.114 832.822 312.898C831.987 310.665 830.717 308.901 829.012 307.605C827.325 306.293 825.203 305.636 822.646 305.636C820.191 305.636 818.129 306.259 816.458 307.503C814.788 308.73 813.527 310.452 812.674 312.668C811.822 314.866 811.396 317.432 811.396 320.364ZM855.373 316.375V340H849.339V287.636H855.373V306.864H855.885C856.805 304.835 858.186 303.224 860.027 302.031C861.885 300.821 864.356 300.216 867.441 300.216C870.118 300.216 872.461 300.753 874.473 301.827C876.484 302.884 878.044 304.511 879.152 306.71C880.277 308.892 880.839 311.67 880.839 315.045V340H874.805V315.455C874.805 312.335 873.995 309.923 872.376 308.219C870.774 306.497 868.549 305.636 865.703 305.636C863.725 305.636 861.953 306.054 860.385 306.889C858.833 307.724 857.606 308.943 856.703 310.545C855.816 312.148 855.373 314.091 855.373 316.375ZM891.878 340V300.727H897.912V340H891.878ZM894.946 294.182C893.77 294.182 892.756 293.781 891.904 292.98C891.069 292.179 890.651 291.216 890.651 290.091C890.651 288.966 891.069 288.003 891.904 287.202C892.756 286.401 893.77 286 894.946 286C896.123 286 897.128 286.401 897.963 287.202C898.816 288.003 899.242 288.966 899.242 290.091C899.242 291.216 898.816 292.179 897.963 292.98C897.128 293.781 896.123 294.182 894.946 294.182ZM924.919 340.818C921.237 340.818 918.066 339.949 915.407 338.21C912.748 336.472 910.703 334.077 909.271 331.026C907.839 327.974 907.123 324.489 907.123 320.568C907.123 316.58 907.856 313.06 909.322 310.009C910.805 306.94 912.868 304.545 915.51 302.824C918.169 301.085 921.271 300.216 924.816 300.216C927.578 300.216 930.066 300.727 932.282 301.75C934.498 302.773 936.314 304.205 937.728 306.045C939.143 307.886 940.021 310.034 940.362 312.489H934.328C933.868 310.699 932.845 309.114 931.26 307.733C929.691 306.335 927.578 305.636 924.919 305.636C922.566 305.636 920.504 306.25 918.731 307.477C916.975 308.687 915.603 310.401 914.615 312.616C913.643 314.815 913.157 317.398 913.157 320.364C913.157 323.398 913.635 326.04 914.589 328.29C915.561 330.54 916.924 332.287 918.68 333.531C920.453 334.776 922.532 335.398 924.919 335.398C926.487 335.398 927.91 335.125 929.189 334.58C930.467 334.034 931.549 333.25 932.436 332.227C933.322 331.205 933.953 329.977 934.328 328.545H940.362C940.021 330.864 939.177 332.952 937.831 334.81C936.501 336.651 934.737 338.116 932.538 339.207C930.356 340.281 927.816 340.818 924.919 340.818Z" fill="#98A2B3"/>
</svg>
